# Blender v2.80 (sub 75) OBJ File: ''
# www.blender.org
mtllib sphere4.mtl
o Sphere.004
v 0.675198 0.985225 0.370737
v 0.815199 0.860862 0.428727
v 0.930096 0.709325 0.476319
v 0.318190 0.923880 0.212608
v 0.623858 0.985225 0.466787
v 0.749856 0.860862 0.550977
v 0.853260 0.709325 0.620069
v 0.768178 0.382683 0.513280
v 0.514173 0.942499 0.504673
v 0.621325 0.818136 0.611826
v 0.709263 0.666600 0.699764
vt 0.437500 0.812500
vt 0.406250 0.875000
vt 0.406250 0.812500
vt 0.437500 0.750000
vt 0.406250 0.750000
vt 0.437500 0.687500
vt 0.406250 0.687500
vt 0.375000 0.812500
vt 0.375000 0.750000
vt 0.375000 0.687500
vt 0.406250 0.625000
vn -0.1372 0.9878 -0.0734
vn 0.5611 0.7715 0.2999
vn 0.6831 0.6326 0.3651
vn -0.3133 0.9377 0.1504
vn 0.1391 0.6479 0.7489
vn 0.2748 0.5478 0.7902
vn 0.8234 -0.3583 0.4401
vn 0.5317 -0.3851 0.7543
vn 0.0055 0.6555 0.7552
vn 0.1877 0.5722 0.7983
usemtl None
s off
f 1/1/1 4/2/1 5/3/1
f 2/4/2 5/3/2 6/5/2
f 3/6/3 6/5/3 7/7/3
f 4/2/4 9/8/4 5/3/4
f 5/3/5 10/9/5 6/5/5
f 6/5/6 11/10/6 7/7/6
f 2/4/2 1/1/2 5/3/2
f 3/6/3 2/4/3 6/5/3
f 3/6/7 7/7/7 8/11/7
f 8/11/8 7/7/8 11/10/8
f 5/3/9 9/8/9 10/9/9
f 6/5/10 10/9/10 11/10/10
