# Blender v2.80 (sub 75) OBJ File: ''
# www.blender.org
mtllib sphere5.mtl
o Sphere.005
v 0.544895 0.831470 0.108387
v 0.693520 0.707107 0.137950
v 0.815493 0.555570 0.162212
v 0.353554 0.923880 0.146447
v 0.675198 0.985225 0.370737
v 0.815199 0.860862 0.428727
v 0.930096 0.709325 0.476319
v 0.853554 0.382683 0.353554
v 0.318190 0.923880 0.212608
v 0.768178 0.382683 0.513280
vt 0.468750 0.687500
vt 0.437500 0.750000
vt 0.437500 0.687500
vt 0.468750 0.812500
vt 0.437500 0.875000
vt 0.437500 0.812500
vt 0.468750 0.750000
vt 0.406250 0.625000
vt 0.437500 0.625000
vt 0.406250 0.875000
vn 0.7629 0.4256 -0.4867
vn 0.2575 0.7724 -0.5806
vn 0.6714 0.5012 -0.5460
vn 0.8234 -0.3583 0.4401
vn 0.6953 0.4730 -0.5411
vn 0.9499 -0.1132 -0.2912
vn 0.5776 0.5460 -0.6069
vn -0.1372 0.9878 -0.0734
usemtl None
s off
f 3/1/1 6/2/1 7/3/1
f 1/4/2 4/5/2 5/6/2
f 2/7/3 5/6/3 6/2/3
f 7/3/4 10/8/4 8/9/4
f 3/1/5 2/7/5 6/2/5
f 3/1/6 7/3/6 8/9/6
f 2/7/7 1/4/7 5/6/7
f 5/6/8 4/5/8 9/10/8
