# Blender v2.80 (sub 75) OBJ File: ''
# www.blender.org
mtllib sphere3.mtl
o Sphere.003
v 0.318190 0.923880 0.212608
v 0.768178 0.382683 0.513280
v 0.270598 0.923880 0.270599
v 0.514173 0.942499 0.504673
v 0.621325 0.818136 0.611826
v 0.709263 0.666600 0.699764
v 0.653282 0.382683 0.653282
v 0.212608 0.923880 0.318190
v 0.429983 0.942499 0.573766
v 0.514172 0.818136 0.699764
v 0.583265 0.666600 0.803167
v 0.513280 0.382683 0.768178
v 0.252627 0.890433 0.596227
v 0.310617 0.766070 0.736228
v 0.358209 0.614533 0.851125
vt 0.406250 0.625000
vt 0.375000 0.687500
vt 0.375000 0.625000
vt 0.375000 0.875000
vt 0.343750 0.812500
vt 0.375000 0.812500
vt 0.343750 0.750000
vt 0.375000 0.750000
vt 0.343750 0.687500
vt 0.343750 0.625000
vt 0.343750 0.875000
vt 0.312500 0.812500
vt 0.312500 0.750000
vt 0.312500 0.687500
vt 0.406250 0.875000
vn 0.7488 -0.2483 0.6145
vn -0.0352 0.9985 -0.0428
vn 0.4036 0.7715 0.4918
vn 0.4913 0.6326 0.5987
vn 0.6152 -0.2440 0.7496
vn -0.2606 0.9534 0.1522
vn -0.0490 0.6943 0.7180
vn 0.0408 0.5758 0.8166
vn -0.0427 0.9985 -0.0350
vn 0.2442 -0.1777 0.9533
vn -0.1232 0.7160 0.6871
vn -0.0109 0.6020 0.7985
usemtl None
s off
f 2/1/1 6/2/1 7/3/1
f 3/4/2 9/5/2 4/6/2
f 4/6/3 10/7/3 5/8/3
f 6/2/4 10/7/4 11/9/4
f 7/3/5 11/9/5 12/10/5
f 8/11/6 13/12/6 9/5/6
f 9/5/7 14/13/7 10/7/7
f 10/7/8 15/14/8 11/9/8
f 1/15/9 3/4/9 4/6/9
f 3/4/2 8/11/2 9/5/2
f 4/6/3 9/5/3 10/7/3
f 6/2/4 5/8/4 10/7/4
f 7/3/5 6/2/5 11/9/5
f 12/10/10 11/9/10 15/14/10
f 9/5/11 13/12/11 14/13/11
f 10/7/12 14/13/12 15/14/12
